<svg width="81" height="81" viewBox="0 0 81 81" fill="none" xmlns="http://www.w3.org/2000/svg">
<path d="M64.0562 37.0852H24.0717L36.3098 22.3861C36.882 21.6976 37.1574 20.8099 37.0752 19.9185C36.993 19.027 36.56 18.2047 35.8715 17.6324C35.183 17.0602 34.2954 16.7849 33.4039 16.867C32.5124 16.9492 31.6901 17.3822 31.1179 18.0707L14.261 38.2989C14.1476 38.4598 14.0462 38.6289 13.9576 38.8046C13.9576 38.9732 13.9576 39.0744 13.7216 39.2429C13.5688 39.6295 13.4888 40.041 13.4856 40.4566C13.4888 40.8723 13.5688 41.2838 13.7216 41.6703C13.7216 41.8389 13.7216 41.94 13.9576 42.1086C14.0462 42.2844 14.1476 42.4534 14.261 42.6143L31.1179 62.8425C31.4349 63.2231 31.8318 63.5292 32.2805 63.7389C32.7292 63.9487 33.2185 64.057 33.7138 64.0562C34.5016 64.0578 35.265 63.7834 35.8715 63.2808C36.2129 62.9978 36.4951 62.6502 36.7019 62.258C36.9088 61.8657 37.0362 61.4365 37.0769 60.9949C37.1176 60.5534 37.0708 60.1081 36.9392 59.6846C36.8076 59.2612 36.5937 58.8679 36.3098 58.5272L24.0717 43.828H64.0562C64.9503 43.828 65.8079 43.4728 66.4401 42.8405C67.0724 42.2083 67.4276 41.3508 67.4276 40.4566C67.4276 39.5625 67.0724 38.705 66.4401 38.0727C65.8079 37.4404 64.9503 37.0852 64.0562 37.0852Z" fill="#231F20" fill-opacity="0.7"/>
</svg>
