<svg width="214" height="214" viewBox="0 0 214 214" fill="none" xmlns="http://www.w3.org/2000/svg">
<path d="M183.594 196.167C183.594 161.659 149.265 133.75 107 133.75C64.7351 133.75 30.4059 161.659 30.4059 196.167M107 107C118.824 107 130.164 102.303 138.525 93.9418C146.886 85.5808 151.583 74.2409 151.583 62.4166C151.583 50.5924 146.886 39.2525 138.525 30.8915C130.164 22.5305 118.824 17.8333 107 17.8333C95.1758 17.8333 83.8359 22.5305 75.4749 30.8915C67.1139 39.2525 62.4167 50.5924 62.4167 62.4166C62.4167 74.2409 67.1139 85.5808 75.4749 93.9418C83.8359 102.303 95.1758 107 107 107Z" stroke="black" stroke-width="1.5" stroke-linecap="round" stroke-linejoin="round"/>
</svg>
