<svg width="80" height="80" viewBox="0 0 80 80" fill="none" xmlns="http://www.w3.org/2000/svg">
<circle cx="40" cy="40" r="40" fill="#715E8C"/>
<path d="M39.9998 36.6667C47.2163 36.6667 53.0664 30.6971 53.0664 23.3333C53.0664 15.9695 47.2163 10 39.9998 10C32.7833 10 26.9331 15.9695 26.9331 23.3333C26.9331 30.6971 32.7833 36.6667 39.9998 36.6667Z" stroke="white" stroke-width="4" stroke-linecap="round" stroke-linejoin="round"/>
<path d="M20 69.6796V63.013C20 59.4767 21.3767 56.0854 23.8271 53.5849C26.2776 51.0844 29.6012 49.6796 33.0667 49.6796H46.1333C49.5988 49.6796 52.9224 51.0844 55.3729 53.5849C57.8233 56.0854 59.2 59.4767 59.2 63.013V69.6796" stroke="white" stroke-width="4" stroke-linecap="round" stroke-linejoin="round"/>
</svg>
