<svg width="80" height="80" viewBox="0 0 80 80" fill="none" xmlns="http://www.w3.org/2000/svg">
<circle cx="40" cy="40" r="38" stroke="#523B33" stroke-width="4"/>
<path d="M39.9998 35.9333C47.2163 35.9333 53.0664 30.0831 53.0664 22.8666C53.0664 15.6501 47.2163 9.79993 39.9998 9.79993C32.7833 9.79993 26.9331 15.6501 26.9331 22.8666C26.9331 30.0831 32.7833 35.9333 39.9998 35.9333Z" stroke="#523B33" stroke-width="4" stroke-linecap="round" stroke-linejoin="round"/>
<path d="M20.4001 68.6V62.0667C20.4001 58.6012 21.7768 55.2776 24.2273 52.8271C26.6778 50.3767 30.0013 49 33.4668 49H46.5335C49.999 49 53.3225 50.3767 55.773 52.8271C58.2235 55.2776 59.6001 58.6012 59.6001 62.0667V68.6" stroke="#523B33" stroke-width="4" stroke-linecap="round" stroke-linejoin="round"/>
</svg>
