<svg width="53" height="56" viewBox="0 0 53 56" fill="none" xmlns="http://www.w3.org/2000/svg">
<path d="M26.425 34.854C25.9102 34.855 25.4113 34.6681 25.0149 34.3256L11.7959 22.8387C11.346 22.4488 11.063 21.8884 11.0093 21.281C10.9556 20.6735 11.1355 20.0686 11.5095 19.5995C11.8835 19.1303 12.4208 18.8353 13.0034 18.7793C13.586 18.7232 14.166 18.9108 14.616 19.3008L26.425 29.593L38.234 19.6684C38.4593 19.4775 38.7186 19.335 38.997 19.249C39.2753 19.163 39.5672 19.1353 39.8559 19.1673C40.1446 19.1993 40.4243 19.2905 40.6791 19.4356C40.9339 19.5808 41.1586 19.777 41.3404 20.013C41.5422 20.2492 41.695 20.5263 41.7893 20.827C41.8836 21.1277 41.9173 21.4454 41.8883 21.7603C41.8594 22.0751 41.7684 22.3804 41.621 22.6569C41.4737 22.9334 41.2731 23.1752 41.032 23.3671L27.813 34.4634C27.4052 34.7518 26.9165 34.8893 26.425 34.854Z" fill="white"/>
</svg>
